 <?xml version="1.0" standalone="no"?> <!DOCTYPE svg PUBLIC "-//W3C//DTD SVG 20010904//EN"  "http://www.w3.org/TR/2001/REC-SVG-20010904/DTD/svg10.dtd"> <svg version="1.0" xmlns="http://www.w3.org/2000/svg"  width="700.000000pt" height="700.000000pt" viewBox="0 0 700.000000 700.000000"  preserveAspectRatio="xMidYMid meet"> <metadata> Created by potrace 1.11, written by Peter Selinger 2001-2013 </metadata> <g transform="translate(0.000000,700.000000) scale(0.100000,-0.100000)" fill="#000000" stroke="none"> <path d="M0 3500 l0 -3500 3500 0 3500 0 0 3500 0 3500 -3500 0 -3500 0 0 -3500z m3735 1680 c450 -25 815 -101 1160 -242 670 -275 1114 -726 1209 -1228 22 -116 21 -321 -3 -435 -124 -589 -713 -1095 -1549 -1329 -363 -102 -648 -140 -1052 -140 -404 0 -689 38 -1052 140 -477 134 -896 367 -1168 650 -214 223 -337 446 -385 696 -20 108 -20 308 0 416 84 440 431 840 970 1118 287 148 570 242 900 299 334 57 627 73 970 55z"/> <path d="M3200 4959 c-531 -39 -971 -179 -1134 -359 -184 -204 -28 -417 415 -564 95 -32 276 -75 374 -91 l40 -6 22 123 c74 414 256 759 452 855 79 40 182 40 261 1 150 -74 284 -273 380 -567 38 -115 90 -342 90 -391 0 -20 3 -21 43 -15 189 30 419 97 564 165 473 222 383 537 -207 724 -348 110 -851 159 -1300 125z"/> <path d="M3425 4531 c-118 -54 -228 -261 -284 -533 l-18 -87 76 -7 c98 -10 504 -10 602 0 l76 7 -18 87 c-68 333 -211 552 -359 552 -19 0 -53 -9 -75 -19z"/> <path d="M1499 4268 c-258 -353 -309 -785 -139 -1173 237 -540 910 -964 1699 -1070 58 -8 137 -17 175 -21 l68 -7 -46 43 c-94 87 -191 262 -261 473 -81 245 -123 498 -132 809 l-6 198 -36 6 c-532 91 -912 251 -1119 469 -89 93 -132 177 -140 277 l-7 73 -56 -77z"/> <path d="M5438 4272 c-7 -98 -50 -183 -140 -277 -207 -218 -587 -378 -1119 -469 l-36 -6 -6 -198 c-9 -311 -51 -564 -132 -809 -69 -208 -147 -353 -250 -462 l-50 -53 65 6 c256 27 458 67 646 127 690 221 1168 653 1295 1173 26 107 35 298 20 406 -31 210 -132 442 -264 604 l-24 30 -5 -72z"/> <path d="M3103 3377 c25 -428 175 -788 350 -836 214 -60 414 317 444 836 l6 115 -89 -8 c-49 -4 -190 -8 -314 -8 -124 0 -265 4 -314 8 l-89 8 6 -115z"/> </g> </svg>